<svg width="49.99999999999999" height="20" xmlns="http://www.w3.org/2000/svg">
    <g>
        <g id="svg_1">
            <path id="svg_2" d="m0.88024,19l0,-18l48,0l0,18l-48,0zm-1,-19l0,20l50,0l0,-20l-50,0zm6,18l0,-1l-1,0l0,1l1,0zm2,-1l-1,0l0,1l1,0l0,-1zm-1,-15l0,1l1,0l0,-1l-1,0zm-2,1l1,0l0,-1l-1,0l0,1zm1,0l0,14l1,0l0,-14l-1,0z" fill="#fff"/>
        </g>
        <text fill="#ffffff" stroke-width="0" x="38.69116" y="15.14192" id="svg_3" font-size="24" font-family="Noto Sans JP" text-anchor="start" xml:space="preserve" stroke="#000" transform="matrix(1.0014 0 0 0.840179 -2.51108 3.72124)">$</text>
        <rect stroke="#000" id="svg_4" height="15.20956" width="49.34124" y="21.55687" x="0.20962" fill="#fff"/>
    </g>
</svg>
