<svg viewBox="0 0 20 13" xmlns="http://www.w3.org/2000/svg" fill-rule="evenodd" clip-rule="evenodd" stroke-linejoin="round" stroke-miterlimit="1.414"><path d="M10.222 7.444H.592c-.37 0-.592-.222-.592-.52v-4.59c0-.297.222-.52.593-.52h12.37c.296 0 .593.223.593.52v1.925h-.667V2.48H.666v4.37h9.555v.594zm-.074 0H8.296c-.296 0-.592-.222-.592-.52v-4.59c0-.297.222-.52.592-.52h4.593c.295 0 .59.223.59.52v1.925h-.665V2.48h-4.37v4.37h1.777v.594h-.074zm1.333-2.89l-.813.816h-.149l-.888-.815V4.48c0-.073.074-.147.148-.147h1.63c.073 0 .148.074.148.148-.075 0-.075 0-.075.075zM7.78 12.408L8 8.925l.074-.074L16.667.556 20 3.74l-8.667 8.37-3.555.297zm.815-3.185l-.15 2.444 2.594-.222 8-7.704-2.37-2.296-8.074 7.778z" fill-rule="nonzero"/></svg>