<?xml version="1.0" encoding="UTF-8"?>
<svg xmlns="http://www.w3.org/2000/svg" xmlns:xlink="http://www.w3.org/1999/xlink" width="45pt" height="45pt" viewBox="0 0 45 45" version="1.1">
<g id="surface1">
<path style=" stroke:none;fill-rule:nonzero;fill:rgb(0%,0%,0%);fill-opacity:1;" d="M 19.929688 0.0507812 C 15.054688 0.238281 10.1875 1.011719 6.613281 2.167969 C 4.136719 2.964844 2.019531 4.230469 1.003906 5.511719 C 0.488281 6.164062 0.15625 6.875 0.046875 7.578125 C -0.0195312 7.988281 -0.0195312 37.011719 0.046875 37.421875 C 0.15625 38.125 0.488281 38.835938 1.011719 39.496094 C 2.007812 40.753906 4.167969 42.042969 6.613281 42.832031 C 13.507812 45.058594 23.832031 45.628906 32.3125 44.242188 C 36.636719 43.535156 39.691406 42.589844 41.804688 41.308594 C 43.472656 40.292969 44.441406 39.210938 44.847656 37.90625 L 44.976562 37.492188 L 44.992188 22.707031 C 45 12.554688 44.984375 7.820312 44.953125 7.597656 C 44.585938 5.160156 41.828125 3.09375 37.226562 1.8125 C 32.300781 0.445312 26.078125 -0.1875 19.929688 0.0507812 Z M 25.945312 4.179688 C 29.128906 4.367188 31.96875 4.734375 34.164062 5.242188 C 37.554688 6.027344 40.175781 7.113281 40.804688 7.996094 C 40.914062 8.15625 40.917969 8.167969 40.855469 8.296875 C 40.4375 9.097656 37.886719 10.21875 34.710938 10.992188 C 32.335938 11.570312 29.742188 11.933594 26.21875 12.175781 C 25.070312 12.253906 19.984375 12.253906 18.828125 12.175781 C 16.214844 12 14.027344 11.746094 12.238281 11.410156 C 8.390625 10.695312 4.917969 9.382812 4.207031 8.371094 L 4.074219 8.179688 L 4.203125 7.988281 C 4.953125 6.902344 8.957031 5.472656 13.132812 4.796875 C 15.101562 4.480469 17.6875 4.230469 19.972656 4.132812 C 21.128906 4.085938 24.847656 4.109375 25.945312 4.179688 Z M 4.6875 13.4375 C 8.066406 14.960938 12.628906 15.878906 18.78125 16.265625 C 20.042969 16.34375 25.054688 16.34375 26.265625 16.265625 C 32.609375 15.851562 37.070312 14.933594 40.515625 13.34375 C 40.710938 13.253906 40.882812 13.179688 40.894531 13.179688 C 40.902344 13.179688 40.914062 15.269531 40.914062 17.824219 L 40.914062 22.46875 L 40.796875 22.664062 C 40.480469 23.207031 39.03125 23.980469 37.097656 24.628906 C 34.164062 25.617188 30.820312 26.195312 26.242188 26.496094 C 25.027344 26.578125 21.378906 26.605469 19.929688 26.546875 C 14.476562 26.320312 10.148438 25.554688 6.75 24.210938 C 5.574219 23.75 4.886719 23.371094 4.425781 22.949219 C 4.058594 22.609375 4.085938 23.042969 4.085938 17.839844 C 4.085938 15.277344 4.089844 13.179688 4.101562 13.179688 C 4.109375 13.179688 4.371094 13.292969 4.6875 13.4375 Z M 5.152344 27.960938 C 9.398438 29.765625 16.203125 30.765625 23.488281 30.65625 C 26.625 30.609375 29.136719 30.417969 31.921875 30.007812 C 35.433594 29.488281 38.625 28.613281 40.601562 27.617188 L 40.914062 27.460938 L 40.914062 36.8125 L 40.796875 36.984375 C 40.375 37.605469 39.027344 38.300781 36.894531 39 C 34.605469 39.746094 32.359375 40.210938 29.386719 40.542969 C 27.375 40.765625 25.8125 40.863281 23.394531 40.898438 C 18.601562 40.96875 13.765625 40.507812 10.308594 39.644531 C 7.179688 38.867188 4.808594 37.851562 4.222656 37.050781 L 4.085938 36.859375 L 4.085938 27.460938 L 4.398438 27.617188 C 4.570312 27.699219 4.910156 27.855469 5.152344 27.960938 Z M 5.152344 27.960938 "/>
</g>
</svg>
