<svg viewBox="0 0 21 21" xmlns="http://www.w3.org/2000/svg" fill-rule="evenodd" clip-rule="evenodd" stroke-linejoin="round" stroke-miterlimit="1.414"><path d="M20.422 10.42v8.11c0 1.026-.865 1.89-1.892 1.89h-8.216l.594-.594h7.622c.703 0 1.297-.594 1.297-1.297V10.96l.595-.54zM13.18 2.746H3.34V.42h-.594v2.325H.422v.595h2.324v9.622l.595-.595V3.34h9.298l.54-.595zm6.864 4.217c.216-.217.324-.487.324-.81 0-.326-.108-.596-.324-.812l-2-1.946c-.433-.432-1.19-.432-1.622 0l-.865.865 3.622 3.566.864-.864zm-4.92-2.27L4.37 15.177l-.27 3.892 3.946-.325L18.692 8.26l-3.567-3.57z" fill-rule="nonzero"/></svg>