<?xml version="1.0" standalone="no"?>
<!DOCTYPE svg PUBLIC "-//W3C//DTD SVG 1.1//EN" "http://www.w3.org/Graphics/SVG/1.1/DTD/svg11.dtd">
<svg width="100%" height="100%" viewBox="0 0 50 20" version="1.1" xmlns="http://www.w3.org/2000/svg" xmlns:xlink="http://www.w3.org/1999/xlink" xml:space="preserve" style="fill-rule:evenodd;clip-rule:evenodd;stroke-linejoin:round;stroke-miterlimit:1.41421;">    
    <path d="M49.0194,0.0002L49.0194,1.9042L50.0004,1.9042L50.0004,0.0002L49.0194,0.0002ZM44.0004,1.0002L47.0004,1.0002L47.0004,0.0002L44.0004,0.0002L44.0004,1.0002ZM38.9994,1.0002L42.0004,1.0002L42.0004,0.0002L38.9994,0.0002L38.9994,1.0002ZM34.0004,1.0002L37.0004,1.0002L37.0004,0.0002L34.0004,0.0002L34.0004,1.0002ZM28.9994,1.0002L32.0004,1.0002L32.0004,0.0002L28.9994,0.0002L28.9994,1.0002ZM25.0004,1.0002L27.0004,1.0002L27.0004,0.0002L25.0004,0.0002L25.0004,1.0002ZM19.9994,1.0002L23.0004,1.0002L23.0004,0.0002L19.9994,0.0002L19.9994,1.0002ZM15.0004,1.0002L18.0004,1.0002L18.0004,0.0002L15.0004,0.0002L15.0004,1.0002ZM9.9994,1.0002L12.9994,1.0002L12.9994,0.0002L9.9994,0.0002L9.9994,1.0002ZM5.0004,1.0002L8.0004,1.0002L8.0004,0.0002L5.0004,0.0002L5.0004,1.0002ZM0.0004,0.0002L0.0004,2.0002L0.9994,2.0002L0.9994,1.0002L2.9994,1.0002L2.9994,0.0002L0.0004,0.0002ZM48.9994,7.0002L50.0004,7.0002L50.0004,3.9992L48.9994,3.9992L48.9994,7.0002ZM0.0004,7.0002L1.0004,7.0002L1.0004,3.9992L0.0004,3.9992L0.0004,7.0002ZM48.9994,11.0002L50.0004,11.0002L50.0004,9.0002L48.9994,9.0002L48.9994,11.0002ZM0.0004,11.0002L1.0004,11.0002L1.0004,9.0002L0.0004,9.0002L0.0004,11.0002ZM48.9994,16.0002L50.0004,16.0002L50.0004,12.9992L48.9994,12.9992L48.9994,16.0002ZM0.0004,16.0002L1.0004,16.0002L1.0004,12.9992L0.0004,12.9992L0.0004,16.0002ZM18.0004,18.0002L30.0004,18.0002L30.0004,13.9992L18.0004,13.9992L18.0004,18.0002ZM0.0004,18.0002L0.0004,20.0002L2.9994,20.0002L2.9994,19.0002L0.9994,19.0002L0.9994,18.0002L0.0004,18.0002ZM49.0194,18.0952L49.0194,20.0002L50.0004,20.0002L50.0004,18.0952L49.0194,18.0952ZM44.0004,20.0002L47.0004,20.0002L47.0004,19.0002L44.0004,19.0002L44.0004,20.0002ZM38.9994,20.0002L42.0004,20.0002L42.0004,19.0002L38.9994,19.0002L38.9994,20.0002ZM34.0004,20.0002L37.0004,20.0002L37.0004,19.0002L34.0004,19.0002L34.0004,20.0002ZM28.9994,20.0002L32.0004,20.0002L32.0004,19.0002L28.9994,19.0002L28.9994,20.0002ZM25.0004,20.0002L27.0004,20.0002L27.0004,19.0002L25.0004,19.0002L25.0004,20.0002ZM19.9994,20.0002L23.0004,20.0002L23.0004,19.0002L19.9994,19.0002L19.9994,20.0002ZM15.0004,20.0002L18.0004,20.0002L18.0004,19.0002L15.0004,19.0002L15.0004,20.0002ZM9.9994,20.0002L12.9994,20.0002L12.9994,19.0002L9.9994,19.0002L9.9994,20.0002ZM5.0004,20.0002L8.0004,20.0002L8.0004,19.0002L5.0004,19.0002L5.0004,20.0002Z" style="fill:rgb(66,66,81);fill-rule:nonzero;"/>
    <path d="M13,11L16,11L16,9L13,9L13,11ZM5,11L12,11L12,9L5,9L5,11ZM7,5L16,5L16,3L7,3L7,5ZM22,17L26,17L26,15L22,15L22,17ZM18,12L45,12L45,8L18,8L18,12ZM45,6L18,6L18,2L45,2L45,6Z" style="fill:rgb(168,168,183);fill-rule:nonzero;"/>
</svg>
