<svg viewBox="0 0 50 20" xmlns="http://www.w3.org/2000/svg" fill-rule="evenodd" clip-rule="evenodd" stroke-linejoin="round" stroke-miterlimit="1.414"><path d="M49.02 0v1.904H50V0h-.98zM44 1h3V0h-3v1zm-5 0h3V0h-3v1zm-5 0h3V0h-3v1zm-5 0h3V0h-3v1zm-4 0h2V0h-2v1zm-5 0h3V0h-3v1zm-5 0h3V0h-3v1zm-5 0h3V0h-3v1zM5 1h3V0H5v1zM0 0v2h1V1h2V0H0zm49 7h1V4h-1v3zM0 7h1V4H0v3zm49 4h1V9h-1v2zM0 11h1V9H0v2zm49 5h1v-3h-1v3zM0 16h1v-3H0v3zm18 2h12v-4H18v4zM0 18v2h3v-1H1v-1H0zm49.02.095V20H50v-1.905h-.98zM44 20h3v-1h-3v1zm-5 0h3v-1h-3v1zm-5 0h3v-1h-3v1zm-5 0h3v-1h-3v1zm-4 0h2v-1h-2v1zm-5 0h3v-1h-3v1zm-5 0h3v-1h-3v1zm-5 0h3v-1h-3v1zm-5 0h3v-1H5v1z" fill="#424251" fill-rule="nonzero"/><path d="M13 11h3V9h-3v2zm-8 0h7V9H5v2zm2-6h9V3H7v2zm15 12h4v-2h-4v2zm-4-5h27V8H18v4zm27-6H18V2h27v4z" fill="#A8A8B7" fill-rule="nonzero"/></svg>