<?xml version="1.0" standalone="no"?><!DOCTYPE svg PUBLIC "-//W3C//DTD SVG 1.1//EN" "http://www.w3.org/Graphics/SVG/1.1/DTD/svg11.dtd"><svg viewBox="0 0 20 20" version="1.1" xmlns="http://www.w3.org/2000/svg" xmlns:xlink="http://www.w3.org/1999/xlink" xml:space="preserve" style="fill-rule:evenodd;clip-rule:evenodd;stroke-linejoin:round;stroke-miterlimit:1.41421;"><path d="M16.967,5.38l2.944,2.928c0.032,0.035 0.059,0.069 0.078,0.112c0.044,0.098 0.044,0.212 0,0.31c-0.019,0.043 -0.046,0.077 -0.078,0.112l-2.944,2.928l0,5.197l-5.225,0l-1.489,1.481c-0.048,0.042 -0.094,0.07 -0.154,0.093l-4.601,1.448c-0.061,0.015 -0.12,0.023 -0.183,0.012c-0.154,-0.028 -0.279,-0.151 -0.307,-0.305c-0.011,-0.062 -0.004,-0.12 0.012,-0.181l0.81,-2.548l-5.83,0l0,-16.967l16.967,0l0,5.38ZM7.174,15.254l-1.207,3.795l3.813,-1.2l9.324,-9.274l-2.608,-2.593c-3.107,3.09 -6.215,6.181 -9.322,9.272ZM16.025,12.707l-1.415,1.408l0,0.779l-0.783,0l-1.138,1.131l3.336,0l0,-3.318ZM14.705,6.693l1.32,-1.313l0,-4.438l-15.083,0l0,15.083l5.188,0l0.345,-1.086l0.028,-0.045l-0.093,0l0,-0.944l0.471,0l0,-0.471l0.943,0l0,0.058l1.414,-1.406l0,-0.631l0.634,0l1.517,-1.508l-2.151,0l0,-0.942l3.098,0l1.044,-1.038l-4.52,0l0,-5.939l5.845,0l0,4.62ZM5.467,14.894l-1.037,0l0,-0.944l1.037,0l0,0.944ZM2.922,13.95l0.471,0l0,0.943l-1.413,0l0,-1.414l0.942,0l0,0.471ZM2.922,12.537l-0.942,0l0,-1.037l0.942,0l0,1.037ZM7.824,12.537l-0.942,0l0,-1.037l0.942,0l0,1.037ZM3.393,9.992l-0.472,0l0,0.471l-0.942,0l0,-1.413l1.414,0l0,0.942ZM7.824,10.463l-0.943,0l0,-0.471l-0.471,0l0,-0.942l1.414,0l0,-0.001l0,1.414ZM5.467,9.992l-1.037,0l0,-0.942l1.037,0l0,0.942ZM7.824,8.012l-5.846,0l0,-5.939l5.846,0l0,5.939ZM6.88,3.017l-3.957,0l0,3.958l3.957,0l0,-3.958ZM13.762,3.017l-3.958,0l0,3.958l3.958,0l0,-3.958Z" style="fill:#000;"/></svg>
