<svg viewBox="0 0 21 20" xmlns="http://www.w3.org/2000/svg" fill-rule="evenodd" clip-rule="evenodd" stroke-linejoin="round" stroke-miterlimit="1.414"><path d="M19.658 19.997h-.79v-.678h.564v-.566h.678v.79c-.113.34-.226.453-.452.453zm-2.373-.678h-1.582v.677h1.582v-.678zm-3.277 0h-1.582v.677h1.582v-.678zm-3.164 0h-1.58v.677h1.58v-.678zm-3.163 0H6.1v.677h1.58v-.678zm-3.163 0H2.822v.677h1.582v-.678h.113zm-3.277 0H.788v-.566H.11v.79c0 .227.113.34.34.34h.79v-.565zm-.452-3.73H.11v1.582h.678V15.59zm0-3.164H.11v1.582h.678v-1.582zm0-3.163H.11v1.58h.678v-1.58zm0-3.164H.11v1.58h.678V6.1zm0-3.278H.11v1.582h.678V2.822zm0-2.034h.565V.11H.45C.222.11.11.223.11.45v.79h.678V.788zM17.285.11h-1.582v.678h1.582V.11zm-3.277 0h-1.582v.678h1.582V.11zm-3.164 0h-1.58v.678h1.58V.11zM7.68.11H6.1v.678h1.58V.11zm-3.163 0H2.822v.678h1.582V.11h.113zm15.48.34c0-.227-.113-.34-.34-.34h-.79v.678h.565v.565h.678V.45h-.113zm0 15.14h-.678v1.582h.677V15.59zm0-3.164h-.678v1.582h.677v-1.582zm0-3.163h-.678v1.58h.677v-1.58zm0-3.164h-.678v1.58h.677V6.1zm0-3.278h-.678v1.582h.677V2.822zm-3.73 2.712c0-.113-.112-.113-.112-.113H14.12c-.112 0-.112.114-.112.114v.113l1.017 1.13h.226l1.018-1.243zm2.26 3.277v-6.1c0-.453-.338-.68-.677-.68H2.257c-.452 0-.678.34-.678.68v6.1c0 .453.338.68.677.68H17.85c.34 0 .678-.34.678-.68zM2.37 2.823h15.254v5.763H2.37V2.822zm16.158 5.99V2.708c0-.453-.34-.68-.678-.68h-5.763c-.452 0-.678.34-.678.68v6.1c0 .453.338.68.677.68h5.763c.34 0 .678-.34.678-.68zM12.2 2.82h5.537v5.763H12.2V2.822zm4.068 11.186c0-.113-.113-.113-.113-.113H14.12c-.112 0-.112.113-.112.113v.113l1.017 1.13h.226l1.018-1.242c0 .113 0 .113 0 0zm2.26 3.39v-6.102c0-.452-.34-.678-.678-.678H2.257c-.452 0-.678.34-.678.678v6.102c0 .452.338.678.677.678H17.85c.34 0 .678-.34.678-.678zM2.37 11.408h15.254v5.764H2.37V11.41zm16.158 5.99v-6.102c0-.452-.34-.678-.678-.678h-5.763c-.452 0-.678.34-.678.678v6.102c0 .452.338.678.677.678h5.763c.34 0 .678-.34.678-.678zm-6.328-5.99h5.537v5.764H12.2V11.41z" fill-rule="nonzero"/></svg>