<?xml version="1.0" encoding="UTF-8" standalone="no"?>
<svg
   xmlns:dc="http://purl.org/dc/elements/1.1/"
   xmlns:cc="http://creativecommons.org/ns#"
   xmlns:rdf="http://www.w3.org/1999/02/22-rdf-syntax-ns#"
   xmlns:svg="http://www.w3.org/2000/svg"
   xmlns="http://www.w3.org/2000/svg"
   xmlns:sodipodi="http://sodipodi.sourceforge.net/DTD/sodipodi-0.dtd"
   xmlns:inkscape="http://www.inkscape.org/namespaces/inkscape"
   id="svg"
   width="19.456692"
   height="19.449198"
   viewBox="0 0 19.456692 19.449197"
   version="1.1"
   sodipodi:docname="graph.svg"
   inkscape:version="0.92.5 (2060ec1f9f, 2020-04-08)">
  <metadata
     id="metadata9">
    <rdf:RDF>
      <cc:Work
         rdf:about="">
        <dc:format>image/svg+xml</dc:format>
        <dc:type
           rdf:resource="http://purl.org/dc/dcmitype/StillImage" />
        <dc:title></dc:title>
      </cc:Work>
    </rdf:RDF>
  </metadata>
  <defs
     id="defs7" />
  <sodipodi:namedview
     pagecolor="#ffffff"
     bordercolor="#666666"
     borderopacity="1"
     objecttolerance="10"
     gridtolerance="10"
     guidetolerance="10"
     inkscape:pageopacity="0"
     inkscape:pageshadow="2"
     inkscape:window-width="1920"
     inkscape:window-height="986"
     id="namedview5"
     showgrid="false"
     inkscape:zoom="3.33"
     inkscape:cx="199.531"
     inkscape:cy="-28.34508"
     inkscape:window-x="2509"
     inkscape:window-y="-11"
     inkscape:window-maximized="1"
     inkscape:current-layer="svg"
     fit-margin-top="0"
     fit-margin-left="0"
     fit-margin-right="0"
     fit-margin-bottom="0"
     inkscape:pagecheckerboard="true" />
  <g
     id="svgg"
     transform="matrix(0.04879629,0,0,0.04502911,-0.02288546,0)"
     style="fill:#000000">
    <path
       id="path0"
       d="m 0.869,3.756 c -0.092,4.896 -0.092,118.989 0,128.169 l 0.07,7.042 H 45.07 89.202 l 0.02,34.977 c 0.032,53.654 -5.594,49.517 67.351,49.525 l 50.939,0.005 v 30.047 30.047 h 44.142 44.142 l -0.245,36.855 -0.246,36.854 -51.408,0.243 -51.409,0.243 V 325.36 292.958 H 96.479 0.469 l 0.158,65.962 c 0.087,36.28 0.192,67.547 0.235,69.484 l 0.077,3.521 H 96.7 192.462 l 0.248,-29.812 0.248,-29.813 53.521,-0.469 c 56.159,-0.493 55.191,-0.413 59.345,-4.856 4.841,-5.179 4.974,-6.413 4.974,-46.288 v -37.119 h 44.132 44.131 l 0.07,-6.573 c 0.039,-3.615 0.071,-32.981 0.071,-65.258 0,-32.277 -0.032,-60.798 -0.071,-63.38 l -0.07,-4.695 h -95.775 -95.774 v 32.394 32.395 h -51.643 -51.644 v -34.742 -34.742 h 44.132 44.131 V 69.484 0 H 96.714 0.939 l -0.07,3.756 m 168.145,75.117 v 35.681 H 96.714 24.413 V 78.873 43.192 h 72.301 72.3 v 35.681 m 206.573,144.132 v 36.15 h -72.301 -72.3 v -36.15 -36.151 h 72.3 72.301 v 36.151 M 169.014,372.3 v 36.151 H 96.714 24.413 V 372.3 336.15 h 72.301 72.3 v 36.15"
       inkscape:connector-curvature="0"
       style="fill:#000000;fill-rule:evenodd;stroke:none" />
  </g>
</svg>
