<svg viewBox="0 0 20 20" xmlns="http://www.w3.org/2000/svg" fill-rule="evenodd" clip-rule="evenodd" stroke-linejoin="round" stroke-miterlimit="1.414"><path d="M9.222 9.444h-6.89v-7h6.89v7zM3.444 8.222H8.11V3.556H3.445v4.666zm13.89 1.222h-6.89v-7h6.89v7zm-5.778-1.222h4.666V3.556h-4.666v4.666zm-2.334 9.334H7.556v-1.112h.555v-.555h1.112v1.666zm-2.778-1.112H5.222v1.112h1.222v-1.112zm-2.444 0h-.556v-.555h-1.11v1.666H4v-1.112zm-.556-2.888h-1.11v1.222h1.11v-1.222zm0-1.778H4v-1.11H2.333v1.665h1.11v-.555zm3-1.11H5.222v1.11h1.222v-1.11zm2.778 0H7.556v1.11h.555v.555h1.112v-1.666zm0 2.888h-1.11v1.222h1.11v-1.222zm7.89-1.778h-6.223v-1.11h6.332v1.11h-.11zm0 2.89h-6.223v-1.112h6.332v1.11h-.11zm0 2.888h-6.223v-1.112h6.332v1.112h-.11zM20 20H0V0h20v20zM1.11 18.89h17.78V1.11H1.11v17.78z" fill-rule="nonzero"/></svg>