<?xml version="1.0" standalone="no"?><!DOCTYPE svg PUBLIC "-//W3C//DTD SVG 1.1//EN" "http://www.w3.org/Graphics/SVG/1.1/DTD/svg11.dtd"><svg viewBox="0 0 20 20" version="1.1" xmlns="http://www.w3.org/2000/svg" xmlns:xlink="http://www.w3.org/1999/xlink" xml:space="preserve" style="fill-rule:evenodd;clip-rule:evenodd;stroke-linejoin:round;stroke-miterlimit:1.41421;"><path d="M7.838,8.027l-5.856,0l0,-5.95l5.856,0l0,5.95ZM2.927,6.988l3.966,0l0,-3.966l-3.965,0l0,3.966l-0.001,0ZM14.733,8.027l-5.856,0l0,-5.95l5.856,0l0,5.95ZM9.822,6.988l3.965,0l0,-3.966l-3.965,0l0,3.966ZM7.838,14.921l-1.416,0l0,-0.945l0.472,0l0,-0.472l0.945,0l0,1.416l-0.001,0.001ZM5.477,13.976l-1.039,0l0,0.945l1.039,0l0,-0.945ZM3.4,13.976l-0.473,0l0,-0.472l-0.943,0l0,1.416l1.416,0l0,-0.945l0,0.001ZM2.927,11.522l-0.943,0l0,1.038l0.943,0l0,-1.038ZM2.927,10.01l0.473,0l0,-0.943l-1.417,0l0,1.415l0.943,0l0,-0.472l0.001,0ZM5.477,9.067l-1.039,0l0,0.943l1.039,0l0,-0.943ZM7.838,9.067l-1.416,0l0,0.943l0.472,0l0,0.472l0.945,0l0,-1.416l-0.001,0.001ZM7.838,11.522l-0.943,0l0,1.038l0.943,0l0,-1.038ZM14.544,10.01l-5.289,0l0,-0.943l5.382,0l0,0.943l-0.094,0l0.001,0ZM14.544,12.467l-5.289,0l0,-0.945l5.382,0l0,0.943l-0.094,0l0.001,0.002ZM14.544,14.921l-5.289,0l0,-0.945l5.382,0l0,0.945l-0.094,0l0.001,0ZM16.998,16.998l-16.998,0l0,-16.998l16.998,0l0,16.998ZM0.943,16.055l15.112,0l0,-15.112l-15.112,0l0,15.112Z" style="fill:#000;fill-rule:nonzero;"/></svg>
