<svg viewBox="0 0 50 20" xmlns="http://www.w3.org/2000/svg" fill-rule="evenodd" clip-rule="evenodd" stroke-linejoin="round" stroke-miterlimit="1.414"><path d="M1 0v1H0v6h1V1h15V0H1zm15 1v5h2V5h-1V1h-1zm33 4v2h1V5h-1zm-5 1h3V5h-3v1zm-5 0h3V5h-3v1zm-5 0h3V5h-3v1zm-5 0h3V5h-3v1zm-4 0h2V5h-2v1zm-5 0h3V5h-3v1zm29 5h1V9h-1v2zM0 11h1V9H0v2zm49 5h1v-3h-1v3zM0 16h1v-3H0v3zm0 2v2h3v-1H1v-1H0zm49.02.095V20H50v-1.905h-.98zM44 20h3v-1h-3v1zm-5 0h3v-1h-3v1zm-5 0h3v-1h-3v1zm-5 0h3v-1h-3v1zm-4 0h2v-1h-2v1zm-5 0h3v-1h-3v1zm-5 0h3v-1h-3v1zm-5 0h3v-1h-3v1zm-5 0h3v-1H5v1z" fill="#424251" fill-rule="nonzero"/><path d="M19 1h14V0H19v1zm14 4h1V1h-1v4zM18 5h1V1h-1v4z" fill="#868695" fill-rule="nonzero"/></svg>