<svg width="55" height="45" xmlns="http://www.w3.org/2000/svg" fill-rule="evenodd" clip-rule="evenodd" stroke-linejoin="round" stroke-miterlimit="1.414"><path d="M2.478 34.258c-.082-.005-.165-.008-.247-.02-.128-.02-.255-.055-.376-.103-.472-.19-.848-.583-1.01-1.064-.038-.11-.065-.223-.08-.338-.008-.068-.01-.137-.014-.205V12.47c.005-.082.008-.165.02-.247.02-.13.055-.256.104-.377.188-.472.582-.848 1.064-1.01.11-.04.223-.066.338-.08.068-.008.137-.01.206-.014H52.52c.07.004.14.005.21.015.094.013.186.032.276.06.523.156.95.562 1.138 1.076.04.112.074.23.09.35.008.075.012.15.016.227v20.058c-.004.07-.005.14-.015.21-.016.117-.045.23-.082.342v.003c-.165.475-.536.863-1.003 1.05-.127.05-.264.09-.4.108-.076.01-.152.014-.228.018H2.478zm1.772-3.5h26.534V14.242H4.25v16.516zm30.034 0H50.75V14.242H34.284v16.516zm8.27-5.01c-.11 0-.22-.006-.328-.032-.205-.05-.384-.152-.544-.286-.177-.165-.353-.33-.527-.497-1.205-1.162-2.357-2.38-3.538-3.565-.043-.05-.043-.048-.084-.1-.12-.16-.208-.34-.245-.538-.093-.502.14-1.034.58-1.298.18-.108.375-.162.582-.18.34-.012.677-.023 1.016-.03 2.017-.04 4.034.005 6.052.024l1.022.004c.21.012.408.058.592.162.396.223.643.66.635 1.114-.003.116-.02.23-.055.34-.054.177-.148.33-.265.47-.165.176-.33.352-.497.526-1.075 1.115-2.197 2.184-3.3 3.273l-.268.268c-.07.06-.14.117-.217.164-.106.064-.22.11-.337.143-.056.015-.093.02-.152.03-.06.006-.06.006-.122.01z"/></svg>