<?xml version="1.0" standalone="no"?>
<!DOCTYPE svg PUBLIC "-//W3C//DTD SVG 1.1//EN" "http://www.w3.org/Graphics/SVG/1.1/DTD/svg11.dtd">
<svg width="100%" height="100%" viewBox="0 0 50 20" version="1.1" xmlns="http://www.w3.org/2000/svg" xmlns:xlink="http://www.w3.org/1999/xlink" xml:space="preserve" style="fill-rule:evenodd;clip-rule:evenodd;stroke-linejoin:round;stroke-miterlimit:1.41421;">
    <path d="M0,20L50,20L50,0L0,0L0,20ZM1,1L49,1L49,19L1,19L1,1Z" style="fill:rgb(66,66,81);fill-rule:nonzero;"/>
    <rect x="47" y="17" width="1" height="1" style="fill:rgb(66,66,81);fill-rule:nonzero;"/>
    <rect x="47" y="14" width="1" height="1" style="fill:rgb(66,66,81);fill-rule:nonzero;"/>
    <rect x="46" y="14.999" width="1" height="1.001" style="fill:rgb(66,66,81);fill-rule:nonzero;"/>
    <rect x="45" y="16" width="1" height="1" style="fill:rgb(66,66,81);fill-rule:nonzero;"/>
    <rect x="44" y="17" width="1" height="1" style="fill:rgb(66,66,81);fill-rule:nonzero;"/>
    <rect x="42" y="16" width="1" height="1" style="fill:rgb(66,66,81);fill-rule:nonzero;"/>
    <rect x="41" y="17" width="1" height="1" style="fill:rgb(66,66,81);fill-rule:nonzero;"/>
    <rect x="43" y="14.999" width="1" height="1.001" style="fill:rgb(66,66,81);fill-rule:nonzero;"/>
    <rect x="44" y="14" width="1" height="1" style="fill:rgb(66,66,81);fill-rule:nonzero;"/>
    <rect x="45" y="13" width="1" height="1" style="fill:rgb(66,66,81);fill-rule:nonzero;"/>
    <rect x="46" y="12" width="1" height="1" style="fill:rgb(66,66,81);fill-rule:nonzero;"/>
    <rect x="47" y="11" width="1" height="1" style="fill:rgb(66,66,81);fill-rule:nonzero;"/>
    <rect x="3" y="17" width="1" height="1" style="fill:rgb(66,66,81);fill-rule:nonzero;"/>
    <rect x="5" y="17" width="1" height="1" style="fill:rgb(66,66,81);fill-rule:nonzero;"/>
    <rect x="5" y="2" width="1" height="1" style="fill:rgb(66,66,81);fill-rule:nonzero;"/>
    <rect x="3" y="2" width="1" height="1" style="fill:rgb(66,66,81);fill-rule:nonzero;"/>
    <rect x="4" y="3" width="1.001" height="14" style="fill:rgb(66,66,81);fill-rule:nonzero;"/>
</svg>
