<?xml version="1.0" standalone="no"?>
<!DOCTYPE svg PUBLIC "-//W3C//DTD SVG 1.1//EN" "http://www.w3.org/Graphics/SVG/1.1/DTD/svg11.dtd">
<svg width="100%" height="100%" viewBox="0 0 50 20" version="1.1" xmlns="http://www.w3.org/2000/svg" xmlns:xlink="http://www.w3.org/1999/xlink" xml:space="preserve" style="fill-rule:evenodd;clip-rule:evenodd;stroke-linejoin:round;stroke-miterlimit:1.41421;">
    <rect x="14" y="6" width="17" height="6" style="fill:rgb(168,168,183);"/>
    <path d="M46.9308,14.9884C46.9288,15.6844 45.2638,16.8164 45.2638,16.8164C45.2638,16.8164 4.7178,16.8134 3.6008,16.8164C1.9808,16.8214 -0.0042,14.9554 -0.0042,14.9554C-0.0042,14.9554 0.6668,19.7564 3.9948,19.9404C6.4168,20.0744 46.4308,19.9404 46.4308,19.9404C46.4308,19.9404 49.9308,19.7294 49.9308,16.3174C49.9308,15.0234 50.0158,4.8264 49.9918,3.9884C49.9338,1.9794 45.9918,0.0004 45.9918,0.0004L46.9308,1.6944C46.9308,1.6944 46.9328,14.2924 46.9308,14.9884" style="fill:rgb(168,168,175);fill-rule:nonzero;"/>
    <path d="M48,2.9911C48,1.3391 46.638,0.0001 44.957,0.0001L3.043,0.0001C1.362,0.0001 0,1.3391 0,2.9911L0,14.9551C0,16.6071 1.362,18.0001 3.043,18.0001L44.957,18.0001C46.638,18.0001 48,16.6071 48,14.9551L48,2.9911ZM3.804,1.0001L44.061,1.0001C45.646,1.0001 47,2.0361 47,3.4811L47,14.1991C47,15.6441 45.646,17.0001 44.061,17.0001L3.804,17.0001C2.219,17.0001 1,15.6441 1,14.1991L1,3.4811C1,2.0361 2.219,1.0001 3.804,1.0001" style="fill:rgb(66,66,81);fill-rule:nonzero;"/>
</svg>
