<?xml version="1.0" standalone="no"?>
<!DOCTYPE svg PUBLIC "-//W3C//DTD SVG 1.1//EN" "http://www.w3.org/Graphics/SVG/1.1/DTD/svg11.dtd">
<svg width="100%" height="100%" viewBox="0 0 50 20" version="1.1" xmlns="http://www.w3.org/2000/svg" xmlns:xlink="http://www.w3.org/1999/xlink" xml:space="preserve" style="fill-rule:evenodd;clip-rule:evenodd;stroke-linejoin:round;stroke-miterlimit:1.41421;">
    <path d="M0,20L50,20L50,0L0,0L0,20ZM1,1L49,1L49,19L1,19L1,1ZM7,3L8,3L8,2L7,2L7,3ZM5,3L6,3L6,2L5,2L5,3ZM6,3L6,17L5,17L5,18L6,18L6,17L7,17L7,3L6,3ZM7,18L8,18L8,17L7,17L7,18Z" style="fill:rgb(66,66,81);fill-rule:nonzero;"/>
</svg>
