<?xml version="1.0" standalone="no"?>
<!DOCTYPE svg PUBLIC "-//W3C//DTD SVG 1.1//EN" "http://www.w3.org/Graphics/SVG/1.1/DTD/svg11.dtd">
<svg width="100%" height="100%" viewBox="0 0 50 20" version="1.1" xmlns="http://www.w3.org/2000/svg" xmlns:xlink="http://www.w3.org/1999/xlink" xml:space="preserve" style="fill-rule:evenodd;clip-rule:evenodd;stroke-linejoin:round;stroke-miterlimit:1.41421;">
    <path d="M0,20L50,20L50,0L0,0L0,20ZM1,1L49,1L49,19L1,19L1,1ZM11.939,18L12.939,18L12.939,17L11.939,17L11.939,18ZM14,3L14,17L14.939,17L14.939,18L13.939,18L13.939,17L13,17L13,3L13.939,3L13.939,2L14.939,2L14.939,3L14,3ZM12.1616,13.2617C12.1616,14.2617 12.1816,15.1427 12.2416,15.9027L10.6816,15.9027L10.5816,14.3227L10.5416,14.3227C10.0806,15.1027 9.0606,16.1217 7.3406,16.1217C5.8206,16.1217 3.9996,15.2827 3.9996,11.8817L3.9996,6.2207L5.7606,6.2207L5.7606,11.5807C5.7606,13.4217 6.3206,14.6617 7.9206,14.6617C9.1006,14.6617 9.9216,13.8417 10.2416,13.0617C10.3416,12.8017 10.4016,12.4817 10.4016,12.1607L10.4016,6.2207L12.1616,6.2207L12.1616,13.2617ZM11.939,3L12.939,3L12.939,2L11.939,2L11.939,3Z" style="fill:rgb(66,66,81);"/>
    <path d="M16.0396,14.1016C16.5596,14.4426 17.4796,14.8016 18.3596,14.8016C19.6406,14.8016 20.2406,14.1626 20.2406,13.3616C20.2406,12.5216 19.7406,12.0616 18.4396,11.5806C16.6996,10.9606 15.8796,10.0006 15.8796,8.8406C15.8796,7.2806 17.1396,5.9996 19.2206,5.9996C20.2006,5.9996 21.0606,6.2806 21.6006,6.6006L21.1606,7.8806C20.7806,7.6406 20.0806,7.3206 19.1806,7.3206C18.1406,7.3206 17.5606,7.9206 17.5606,8.6406C17.5606,9.4416 18.1406,9.8006 19.4006,10.2816C21.0806,10.9206 21.9406,11.7616 21.9406,13.2026C21.9406,14.9026 20.6206,16.1026 18.3206,16.1026C17.2596,16.1026 16.2796,15.8426 15.5996,15.4426L16.0396,14.1016ZM34.2192,9.2412C34.2192,8.1002 34.1992,7.1202 34.1392,6.2202L35.6792,6.2202L35.7392,8.1212L35.8192,8.1212C36.2602,6.8202 37.3202,6.0002 38.5002,6.0002C38.7002,6.0002 38.8402,6.0202 39.0002,6.0602L39.0002,7.7202C38.8202,7.6802 38.6402,7.6602 38.4002,7.6602C37.1592,7.6602 36.2802,8.6002 36.0392,9.9212C35.9992,10.1612 35.9592,10.4412 35.9592,10.7412L35.9592,15.9022L34.2192,15.9022L34.2192,9.2412ZM25.1798,11.3821C25.2198,13.7621 26.7398,14.7421 28.5008,14.7421C29.7608,14.7421 30.5208,14.5221 31.1808,14.2421L31.4808,15.5021C30.8608,15.7821 29.8008,16.1021 28.2598,16.1021C25.2798,16.1021 23.4998,14.1421 23.4998,11.2221C23.4998,8.3011 25.2198,6.0001 28.0408,6.0001C31.2008,6.0001 32.0408,8.7811 32.0408,10.5611C32.0408,10.9211 32.0018,11.2011 31.9818,11.3821L25.1798,11.3821ZM30.3408,10.1211C30.3608,9.0011 29.8808,7.2611 27.9008,7.2611C26.1198,7.2611 25.3398,8.9001 25.1998,10.1211L30.3408,10.1211Z" style="fill:rgb(168,168,183);"/>
</svg>
