<?xml version="1.0" standalone="no"?>
<!DOCTYPE svg PUBLIC "-//W3C//DTD SVG 1.1//EN" "http://www.w3.org/Graphics/SVG/1.1/DTD/svg11.dtd">
<svg width="100%" height="100%" viewBox="0 0 50 20" version="1.1" xmlns="http://www.w3.org/2000/svg" xmlns:xlink="http://www.w3.org/1999/xlink" xml:space="preserve" style="fill-rule:evenodd;clip-rule:evenodd;stroke-linejoin:round;stroke-miterlimit:1.41421;">
    <path d="M35.463,14L22,14L22,17L35.5,17L35.463,14Z" style="fill:rgb(66,66,81);"/>
    <rect x="32" y="3" width="8" height="3" style="fill:rgb(66,66,81);"/>
    <rect x="22" y="3" width="8" height="3" style="fill:rgb(66,66,81);"/>
    <path d="M12.5,4.5C12.5,5.605 13.395,6.5 14.5,6.5C15.605,6.5 16.5,5.605 16.5,4.5C16.5,3.395 15.605,2.5 14.5,2.5C13.395,2.5 12.5,3.395 12.5,4.5M10,4.5C10,6.985 12.015,9 14.5,9C16.985,9 19,6.985 19,4.5C19,2.015 16.985,0 14.5,0C12.015,0 10,2.015 10,4.5M11.018,4.857C10.556,0.309 17.521,-0.391 17.982,4.143C18.444,8.691 11.479,9.391 11.018,4.857" style="fill:rgb(66,66,81);fill-rule:nonzero;"/>
    <path d="M12.5,15.5C12.5,16.605 13.395,17.5 14.5,17.5C15.605,17.5 16.5,16.605 16.5,15.5C16.5,14.395 15.605,13.5 14.5,13.5C13.395,13.5 12.5,14.395 12.5,15.5M10,15.5C10,17.985 12.015,20 14.5,20C16.985,20 19,17.985 19,15.5C19,13.015 16.985,11 14.5,11C12.015,11 10,13.015 10,15.5M11.018,15.857C10.556,11.309 17.521,10.609 17.982,15.143C18.444,19.691 11.479,20.391 11.018,15.857" style="fill:rgb(66,66,81);fill-rule:nonzero;"/>
</svg>
