<?xml version="1.0" standalone="no"?>
<!DOCTYPE svg PUBLIC "-//W3C//DTD SVG 1.1//EN" "http://www.w3.org/Graphics/SVG/1.1/DTD/svg11.dtd">
<svg width="100%" height="100%" viewBox="0 0 50 20" version="1.1" xmlns="http://www.w3.org/2000/svg" xmlns:xlink="http://www.w3.org/1999/xlink" xml:space="preserve" style="fill-rule:evenodd;clip-rule:evenodd;stroke-linejoin:round;stroke-miterlimit:1.41421;">
    <path d="M11,8.9355C11,7.0395 9.962,5.8755 8.248,5.8755C6.689,5.8755 5.504,7.0005 5.135,7.0005L5,7.0005L5,3.0005L3,3.0005L3,15.0005L5,15.0005L5,9.9735C5,8.6385 5.923,7.9445 7.195,7.9445C9.022,7.9445 9,9.0345 9,9.6775L9,15.0005L11,15.0005L11,8.9355ZM15,4.0005L13,4.0005L13,6.0005L12,6.0005L12,8.0005L13,8.0005L13,13.1255C13,14.2305 13.513,15.0005 15.142,15.0005L15.43,15.0005C15.782,15.0005 16,14.9505 16,14.9345L16,13.2375C16,13.2535 15.876,13.2695 15.732,13.2695C14.82,13.2695 15,13.0775 15,12.5805L15,8.0005L16,8.0005L16,6.0005L15,6.0005L15,4.0005ZM20,4.0005L18,4.0005L18,6.0005L17,6.0005L17,8.0005L18,8.0005L18,13.1255C18,14.2305 18.513,15.0005 20.142,15.0005L20.43,15.0005C20.782,15.0005 21,14.9505 21,14.9345L21,13.2375C21,13.2535 20.876,13.2695 20.732,13.2695C19.82,13.2695 20,13.0775 20,12.5805L20,8.0005L21,8.0005L21,6.0005L20,6.0005L20,4.0005ZM25,6.0005L23,6.0005L23,18.0005L25,18.0005L25,14.0005L25.129,14.0005C25.432,14.0005 26.054,15.1755 27.796,15.1755C30.234,15.1755 31.094,12.8545 31.094,10.4505C31.094,7.5325 29.739,5.8635 27.849,5.8635C26.178,5.8635 25.485,7.0005 25.041,7.0005L25,7.0005L25,6.0005ZM25.014,10.7165C25.014,9.3375 25.396,7.9445 27.102,7.9445C28.685,7.9445 29.219,9.2235 29.219,10.5865C29.219,11.6085 28.773,13.1975 27.174,13.1975C25.591,13.1975 25.014,11.9975 25.014,10.7165M36.094,7.1255L34.219,7.1255L34.219,9.0005L36.094,9.0005L36.094,7.1255ZM36.094,13.1805L34.219,13.1805L34.219,15.0555L36.094,15.0555L36.094,13.1805ZM42,3.0005L40.067,3.0005L36.312,15.0005L38.248,15.0005L42,3.0005ZM46,3.0005L44.067,3.0005L40.312,15.0005L42.248,15.0005L46,3.0005Z" style="fill:rgb(0,127,255);fill-rule:nonzero;"/>
</svg>
