<?xml version="1.0" standalone="no"?>
<!DOCTYPE svg PUBLIC "-//W3C//DTD SVG 1.1//EN" "http://www.w3.org/Graphics/SVG/1.1/DTD/svg11.dtd">
<svg width="100%" height="100%" viewBox="0 0 50 20" version="1.1" xmlns="http://www.w3.org/2000/svg" xmlns:xlink="http://www.w3.org/1999/xlink" xml:space="preserve" style="fill-rule:evenodd;clip-rule:evenodd;">
    <path d="M3,17L6,17L6,15L3,15L3,17ZM11,17L28,17L28,15L11,15L11,17ZM3,12L6,12L6,10L3,10L3,12ZM11,12L25,12L25,10L11,10L11,12ZM40,12L47,12L47,10L40,10L40,12ZM36,17L47,17L47,15L36,15L36,17Z" style="fill:rgb(134,134,149);fill-rule:nonzero;"/>
    <path d="M0,20L50,20L50,0L0,0L0,20ZM1,1L49,1L49,19L1,19L1,1Z" style="fill:rgb(66,66,81);fill-rule:nonzero;"/>
    <path d="M30.9996,1.0001L30.9996,7.0001L8.9996,7.0001L8.9996,1.0001L8.0006,1.0001L8.0006,7.0001L0.9996,7.0001L0.9996,8.0001L8.0006,8.0001L8.0006,19.0001L8.9996,19.0001L8.9996,8.0001L30.9996,8.0001L30.9996,19.0001L32.0006,19.0001L32.0006,8.0001L48.9996,8.0001L48.9996,7.0001L32.0006,7.0001L32.0006,1.0001L30.9996,1.0001Z" style="fill:rgb(168,168,183);fill-rule:nonzero;"/>
    <path d="M3,3L6,3L6,5L3,5L3,3ZM11,3L24,3L24,5L11,5L11,3ZM35,3L47,3L47,5L35,5L35,3Z" style="fill:none;stroke-width:1px;stroke:rgb(66,66,81);"/>
</svg>
