<?xml version="1.0" standalone="no"?>
<!DOCTYPE svg PUBLIC "-//W3C//DTD SVG 1.1//EN" "http://www.w3.org/Graphics/SVG/1.1/DTD/svg11.dtd">
<svg width="100%" height="100%" viewBox="0 0 50 20" version="1.1" xmlns="http://www.w3.org/2000/svg" xmlns:xlink="http://www.w3.org/1999/xlink" xml:space="preserve" style="fill-rule:evenodd;clip-rule:evenodd;stroke-linejoin:round;stroke-miterlimit:1.41421;">
    <path d="M0,20L50,20L50,0L0,0L0,20ZM1,1L49,1L49,19L1,19L1,1Z" style="fill:rgb(66,66,81);fill-rule:nonzero;"/>
    <path d="M32,11L29,11L29,9L32,9L32,11ZM32,14L29,14L29,12L32,12L32,14ZM25,12L28,12L28,14L25,14L25,12ZM21,12L24,12L24,14L21,14L21,12ZM21,9L24,9L24,11L21,11L21,9ZM28,11L25,11L25,9L28,9L28,11ZM32,6L32,8L29,8L29,6L28,6L28,8L25,8L25,6L24,6L24,8L21,8L21,6L20,6L20,8L17,8L17,9L20,9L20,11L17,11L17,12L20,12L20,14L17,14L17,15L20,15L20,17L21,17L21,15L24,15L24,17L25,17L25,15L28,15L28,17L29,17L29,15L32,15L32,17L33,17L33,15L33,14L33,12L33,11L33,9L33,8L33,6L32,6Z" style="fill:rgb(168,168,183);fill-rule:nonzero;"/>
    <rect x="21" y="9" width="3" height="2" style="fill:rgb(66,66,81);fill-rule:nonzero;"/>
    <path d="M33,17L17,17L17,6L33,6L33,17ZM31,4L31,2L29,2L29,4L21,4L21,2L19,2L19,4L16,4L16,18L34,18L34,4L31,4Z" style="fill:rgb(66,66,81);fill-rule:nonzero;"/>
</svg>
