<?xml version="1.0" standalone="no"?>
<!DOCTYPE svg PUBLIC "-//W3C//DTD SVG 1.1//EN" "http://www.w3.org/Graphics/SVG/1.1/DTD/svg11.dtd">
<svg width="100%" height="100%" viewBox="0 0 50 20" version="1.1" xmlns="http://www.w3.org/2000/svg" xmlns:xlink="http://www.w3.org/1999/xlink" xml:space="preserve" style="fill-rule:evenodd;clip-rule:evenodd;stroke-miterlimit:10;">
    <path d="M41.1958,15.1208C43.0298,13.2868 44.5568,11.7598 46.3918,9.9248C47.6918,8.6248 47.2788,6.3128 46.4668,5.4998C45.2288,4.2628 42.8018,4.5098 41.4558,5.9228C39.6018,7.8188 36.4458,11.0588 36.4458,11.0588C36.4458,11.0588 33.9528,13.5468 35.6878,15.2808C37.0578,16.6518 39.7588,14.1208 39.7588,14.1208L44.9338,8.7998C44.9338,8.7998 45.9228,7.5388 45.0998,6.8328C44.1668,6.0338 42.7578,7.1208 42.7578,7.1208C42.7578,7.1208 39.4168,10.4168 39.4168,10.3828M32.9998,0.9998L48.9998,0.9998L48.9998,18.9998L32.9998,18.9998L32.9998,0.9998ZM0.9998,0.9998L31.9998,0.9998L31.9998,18.9998L0.9998,18.9998L0.9998,0.9998ZM-0.0002,19.9998L49.9998,19.9998L49.9998,-0.0002L-0.0002,-0.0002L-0.0002,19.9998ZM-0.0002,-0.0002" style="fill:none;stroke-width:1px;stroke:rgb(66,66,81);"/>
</svg>
